<svg width="41" height="41" viewBox="0 0 41 41" fill="none" xmlns="http://www.w3.org/2000/svg">
<path d="M20.1244 10.4794C20.1244 7.12544 22.6399 3.77148 25.9938 3.77148C25.9938 7.12544 23.4784 10.4794 20.1244 10.4794Z" fill="white"/>
<path d="M20.9627 12.7261C20.0992 12.7261 19.4311 12.4518 18.6844 12.1453C17.7389 11.7572 16.6676 11.3174 14.9144 11.3174C11.7768 11.3174 6.70842 13.8319 6.70842 20.5399C6.70842 28.3414 11.9149 36.472 15.2689 36.472C16.3917 36.472 17.4033 36.0311 18.3701 35.6099C19.2547 35.2242 20.1021 34.8549 20.9627 34.8549C21.8233 34.8549 22.6707 35.2242 23.5553 35.6099C24.5221 36.0311 25.5336 36.472 26.6565 36.472C28.9919 36.472 31.7914 32.5298 33.54 27.5015C30.8222 26.3602 29.0759 23.6733 29.0759 20.5407C29.0759 17.809 30.5275 15.9958 32.7015 14.6713C31.0246 12.1559 28.5316 11.3174 26.7394 11.3174C24.9863 11.3174 23.9149 11.7572 22.9694 12.1453C22.2228 12.4518 21.8262 12.7261 20.9627 12.7261Z" fill="white"/>
</svg>
