<svg width="44" height="44" viewBox="0 0 44 44" fill="none" xmlns="http://www.w3.org/2000/svg">
<rect width="44" height="44" rx="22" fill="#28A702"/>
<path fill-rule="evenodd" clip-rule="evenodd" d="M22 11.25C21.6453 11.25 21.2831 11.3589 20.9148 11.4978C20.5419 11.6385 20.0762 11.8452 19.4954 12.103C18.6418 12.4819 17.5152 12.9168 16.3068 13.2603C15.4249 13.511 14.7119 13.7137 14.1718 13.9231C13.6291 14.1336 13.1369 14.3947 12.8057 14.8332C12.4848 15.258 12.3614 15.7542 12.3047 16.2894C12.25 16.806 12.25 17.4541 12.25 18.2388V21.1833C12.25 24.2392 13.6295 26.6624 15.2967 28.4686C16.9588 30.2691 18.9388 31.4939 20.2439 32.1827L20.3069 32.216C20.8627 32.5098 21.3171 32.75 22 32.75C22.683 32.75 23.1373 32.5098 23.6931 32.216L23.7561 32.1827C25.0612 31.4939 27.0412 30.2691 28.7033 28.4686C30.3705 26.6624 31.75 24.2392 31.75 21.1833V18.2388C31.75 17.4541 31.75 16.806 31.6953 16.2894C31.6386 15.7542 31.5152 15.258 31.1943 14.8332C30.8631 14.3947 30.371 14.1336 29.8282 13.9231C29.2881 13.7137 28.5751 13.511 27.6933 13.2604C26.4849 12.9168 25.3581 12.4819 24.5045 12.103C23.9238 11.8452 23.4581 11.6385 23.0852 11.4978C22.7169 11.3589 22.3547 11.25 22 11.25ZM22.75 17C22.75 16.5858 22.4142 16.25 22 16.25C21.5858 16.25 21.25 16.5858 21.25 17V17.4242C20.6347 17.5289 20.0701 17.7612 19.612 18.0971C18.9732 18.5655 18.5 19.2746 18.5 20.1278C18.5 20.8783 18.7694 21.572 19.4578 22.0328C20.0819 22.4507 20.9522 22.6062 22 22.6062C22.9582 22.6062 23.5279 22.7501 23.8421 22.9537C24.088 23.1131 24.25 23.354 24.25 23.8726C24.25 24.3084 24.0711 24.5775 23.7369 24.777C23.3572 25.0037 22.7608 25.1391 22 25.1391C21.3002 25.1391 20.7004 24.9471 20.2971 24.676C19.8891 24.4018 19.75 24.1036 19.75 23.8726C19.75 23.4584 19.4142 23.1226 19 23.1226C18.5858 23.1226 18.25 23.4584 18.25 23.8726C18.25 24.7554 18.7825 25.4654 19.4603 25.921C19.9609 26.2574 20.5786 26.4867 21.25 26.585V27C21.25 27.4142 21.5858 27.75 22 27.75C22.4142 27.75 22.75 27.4142 22.75 27V26.6006C23.3866 26.5325 23.9974 26.3684 24.5057 26.065C25.2573 25.6163 25.75 24.8772 25.75 23.8726C25.75 22.951 25.412 22.1837 24.6579 21.6949C23.9721 21.2504 23.0418 21.1062 22 21.1062C21.0478 21.1062 20.5431 20.9543 20.2922 20.7864C20.1056 20.6615 20 20.4909 20 20.1278C20 19.8673 20.1424 19.5682 20.499 19.3068C20.855 19.0457 21.3833 18.8613 22 18.8613C22.6167 18.8613 23.145 19.0457 23.5011 19.3068C23.8576 19.5682 24 19.8673 24 20.1278C24 20.542 24.3358 20.8778 24.75 20.8778C25.1642 20.8778 25.5 20.542 25.5 20.1278C25.5 19.2746 25.0268 18.5655 24.388 18.0971C23.9299 17.7612 23.3653 17.5289 22.75 17.4242V17Z" fill="white"/>
</svg>
