<svg width="44" height="44" viewBox="0 0 44 44" fill="none" xmlns="http://www.w3.org/2000/svg">
<rect width="44" height="44" rx="22" fill="#FA6B0A"/>
<path d="M26.0174 12.3251C26.5423 12.4035 27.1136 12.593 27.4412 13.1604C27.7679 13.7264 27.6485 14.3162 27.4564 14.8114C27.2716 15.2879 26.9439 15.8643 26.5622 16.5357L25.4612 18.4725C25.253 18.8388 25.1189 19.0758 25.0336 19.2574C24.9695 19.3937 24.9577 19.4495 24.9558 19.4587C24.9591 19.5698 25.0177 19.6701 25.109 19.7266C25.1189 19.7298 25.173 19.7465 25.3181 19.7578C25.5168 19.7734 25.8183 19.7739 26.2381 19.7739C26.7269 19.7739 27.137 19.7739 27.4569 19.7984C27.7661 19.8221 28.1304 19.8746 28.4357 20.0776C29.0285 20.4716 29.3368 21.1749 29.2287 21.8773C29.173 22.2386 28.968 22.5434 28.7774 22.7893C28.5804 23.0435 28.3047 23.3484 27.9758 23.7121L22.3841 29.8952C21.8712 30.4625 21.4394 30.94 21.0881 31.2463C20.9095 31.402 20.6984 31.5621 20.463 31.6576C20.2036 31.7629 19.8614 31.8076 19.5215 31.6305C19.1824 31.4538 19.023 31.1486 18.9596 30.8774C18.9019 30.6304 18.9102 30.3659 18.9339 30.1296C18.9803 29.6648 19.1196 29.035 19.2851 28.2864L19.9834 25.1277C20.1219 24.5012 20.2064 24.1103 20.228 23.8242C20.2577 23.5884 20.052 23.4872 19.9454 23.4662C19.6639 23.4254 19.267 23.4236 18.6282 23.4236H18.1121C17.4192 23.4236 16.8161 23.4237 16.35 23.3543C15.8569 23.2808 15.329 23.1044 14.9975 22.5916C14.6668 22.0801 14.7208 21.5262 14.8538 21.0454C14.9798 20.5899 15.2245 20.0364 15.5062 19.3994L17.3564 15.2145C17.617 14.6251 17.8361 14.1295 18.0596 13.7414C18.2964 13.3302 18.57 12.9805 18.9698 12.7193C19.3698 12.458 19.7996 12.3484 20.2707 12.2977C20.7147 12.25 21.2547 12.25 21.896 12.25H24.0837C24.8523 12.25 25.5134 12.2499 26.0174 12.3251Z" fill="white"/>
</svg>
