<svg width="44" height="44" viewBox="0 0 44 44" fill="none" xmlns="http://www.w3.org/2000/svg">
<rect width="44" height="44" rx="22" fill="#08A6EF"/>
<path fill-rule="evenodd" clip-rule="evenodd" d="M22.0572 11.75C24.2479 11.75 25.9686 11.75 27.312 11.9306C28.6886 12.1157 29.7809 12.5027 30.6391 13.3609C31.4973 14.2191 31.8843 15.3114 32.0694 16.688C32.25 18.0314 32.25 19.7521 32.25 21.9428V22.0572C32.25 24.2479 32.25 25.9686 32.0694 27.312C31.8843 28.6886 31.4973 29.7809 30.6391 30.6391C29.7809 31.4973 28.6886 31.8843 27.312 32.0694C25.9686 32.25 24.2479 32.25 22.0572 32.25H21.9428C19.7521 32.25 18.0314 32.25 16.688 32.0694C15.3114 31.8843 14.2191 31.4973 13.3609 30.6391C12.5027 29.7809 12.1157 28.6886 11.9306 27.312C11.75 25.9686 11.75 24.2479 11.75 22.0572V21.9428C11.75 19.7521 11.75 18.0314 11.9306 16.688C12.1157 15.3114 12.5027 14.2191 13.3609 13.3609C14.2191 12.5027 15.3114 12.1157 16.688 11.9306C18.0314 11.75 19.7521 11.75 21.9428 11.75H22.0572ZM17 25.25C17.4142 25.25 17.75 25.5858 17.75 26V28C17.75 28.4142 17.4142 28.75 17 28.75C16.5858 28.75 16.25 28.4142 16.25 28V26C16.25 25.5858 16.5858 25.25 17 25.25ZM22.75 25C22.75 24.5858 22.4142 24.25 22 24.25C21.5858 24.25 21.25 24.5858 21.25 25V28C21.25 28.4142 21.5858 28.75 22 28.75C22.4142 28.75 22.75 28.4142 22.75 28V25ZM27 22.25C27.4142 22.25 27.75 22.5858 27.75 23V28C27.75 28.4142 27.4142 28.75 27 28.75C26.5858 28.75 26.25 28.4142 26.25 28V23C26.25 22.5858 26.5858 22.25 27 22.25ZM25.8589 15.2523C26.0902 15.2417 26.3693 15.263 26.6447 15.4195C26.9304 15.5819 27.0889 15.8191 27.1891 16.041C27.2714 16.2234 27.335 16.4456 27.393 16.6486L27.4029 16.683L27.721 17.7934C27.8351 18.1916 27.6048 18.6069 27.2066 18.721C26.8084 18.8351 26.3931 18.6048 26.279 18.2066L26.1323 17.6945C23.8986 20.9059 20.322 22.25 16 22.25C15.5858 22.25 15.25 21.9142 15.25 21.5C15.25 21.0858 15.5858 20.75 16 20.75C19.9526 20.75 22.9634 19.5578 24.8459 16.9154L24.1221 17.0348C23.7134 17.1022 23.3274 16.8255 23.26 16.4169C23.1926 16.0082 23.4692 15.6222 23.8779 15.5548L25.1456 15.3457L25.1788 15.3402C25.4162 15.301 25.6546 15.2616 25.8589 15.2523Z" fill="white"/>
</svg>
