<svg width="41" height="41" viewBox="0 0 41 41" fill="none" xmlns="http://www.w3.org/2000/svg">
<path d="M7.41702 10.5169C7.67809 9.83887 7.80862 9.49986 8.25125 9.39675C8.69387 9.29363 9.01298 9.58822 9.65119 10.1774L19.1451 18.9423C19.7842 19.5323 20.1038 19.8274 20.1038 20.2029C20.1038 20.5785 19.7842 20.8736 19.1451 21.4636L9.72481 30.1604C9.10633 30.7313 8.79707 31.017 8.36282 30.9246C7.92855 30.8321 7.79064 30.5113 7.5148 29.8694C7.18218 29.0956 6.98867 28.2324 6.86674 27.3153C6.62598 25.5043 6.62603 23.1347 6.62607 20.1952V19.951C6.62603 17.0115 6.62598 14.6417 6.86674 12.8308C6.97619 12.0075 7.14334 11.2276 7.41702 10.5169Z" fill="white"/>
<path d="M11.6099 7.60715C11.3497 7.36693 11.4356 6.93977 11.7782 6.84998C13.4663 6.40753 15.1821 6.81577 17.0236 7.57835C18.8467 8.33333 21.0815 9.56484 23.8989 11.1173L24.0836 11.2191C24.7218 11.5708 25.3283 11.905 25.9018 12.2246C26.8176 12.7348 27.2755 12.9899 27.3272 13.4247C27.3791 13.8595 26.99 14.2186 26.2119 14.9369L24.0445 16.9379C23.4923 17.4479 23.2161 17.7027 22.8806 17.7027C22.5452 17.7027 22.2692 17.4479 21.7169 16.9379L11.6099 7.60715Z" fill="white"/>
<path d="M29.6284 16.1633C30.153 15.6791 30.415 15.437 30.762 15.445C31.109 15.4531 31.3323 15.6793 31.7788 16.1318C32.4891 16.8518 33.0232 17.6627 33.2614 18.6348C33.4931 19.5811 33.4931 20.5631 33.2614 21.5091C33.0066 22.5493 32.413 23.4048 31.6274 24.1619C31.1723 24.6002 30.9448 24.8194 30.604 24.8231C30.2634 24.8267 30.0048 24.588 29.4877 24.1106L26.6194 21.4626C25.9803 20.8726 25.6605 20.5775 25.6605 20.202C25.6605 19.8264 25.9803 19.5313 26.6194 18.9413L29.6284 16.1633Z" fill="white"/>
<path d="M25.7218 28.0184C26.6417 27.5071 27.1015 27.2515 27.1536 26.8165C27.2055 26.3814 26.8156 26.0213 26.0354 25.3011L24.0455 23.464C23.4933 22.9542 23.217 22.6992 22.8816 22.6992C22.5462 22.6992 22.2702 22.9542 21.7179 23.464L11.6554 32.7538C11.4706 32.9243 11.536 33.2287 11.7792 33.2924C13.4673 33.7348 15.1831 33.3265 17.0245 32.564C18.8477 31.8089 21.0825 30.5774 23.8997 29.0249L24.0846 28.9233C24.6561 28.6082 25.2021 28.3073 25.7218 28.0184Z" fill="white"/>
</svg>
